<?xml version="1.0" encoding="utf-8"?>
<svg viewBox="0 0 768 768" width="768px" height="768px" xmlns="http://www.w3.org/2000/svg" xmlns:bx="https://boxy-svg.com">
  <defs>
    <linearGradient gradientUnits="userSpaceOnUse" x1="635.109" y1="53.704" x2="635.109" y2="337.233" id="gradient-2" gradientTransform="matrix(2.662682, 0, 0, 2.708717, -1306.176009, -145.467155)">
      <stop offset="0" style="stop-color: rgb(231, 231, 231);"/>
      <stop offset="0.417" style="stop-color: rgb(12, 99, 224);"/>
      <stop offset="0.581" style="stop-color: rgb(13, 100, 224);"/>
      <stop offset="1" style="stop-color: rgb(70, 236, 255);"/>
    </linearGradient>
    <linearGradient gradientUnits="userSpaceOnUse" x1="638.457" y1="24.133" x2="638.457" y2="165.856" id="gradient-3" gradientTransform="matrix(2.662682, 0, 0, 2.193668, -1306.176009, -44.812737)">
      <stop offset="0" style="stop-color: rgb(255, 255, 255); stop-opacity: 0;"/>
      <stop offset="1" style="stop-opacity: 0.26; stop-color: rgb(255, 255, 255);"/>
    </linearGradient>
    <filter id="filter-1" color-interpolation-filters="sRGB" x="-50%" y="-50%" width="200%" height="200%" bx:preset="gaussian-blur 1 7.2">
      <feGaussianBlur stdDeviation="7.2 7.2" edgeMode="none"/>
    </filter>
    <filter id="filter-2" color-interpolation-filters="sRGB" x="-50%" y="-50%" width="200%" height="200%" bx:preset="gaussian-blur 1 5">
      <feGaussianBlur stdDeviation="5 5" edgeMode="none"/>
    </filter>
  </defs>
  <path d="M 128.381 0 L 641.451 0 C 711.342 0 768 57.637 768 128.737 L 768 639.262 C 768 710.362 711.342 768 641.451 768 L 128.381 768 C 58.49 768 1.832 710.362 1.832 639.262 L 1.832 128.737 C 1.832 57.637 58.49 0 128.381 0 Z" style="opacity: 1; fill: url(&quot;#gradient-2&quot;);"/>
  <path d="M 717.392 742.252 C 711.013 747.128 704.165 751.405 696.93 755.001 L 72.902 755.001 C 65.667 751.405 58.819 747.128 52.44 742.252 L 717.392 742.252 Z" style="opacity: 0.7; mix-blend-mode: soft-light; fill-rule: evenodd; fill: rgb(255, 255, 255);"/>
  <path d="M 743.317 715.661 C 739.965 720.278 736.317 724.66 732.401 728.776 L 37.431 728.776 C 33.515 724.66 29.867 720.278 26.515 715.661 L 743.317 715.661 Z" style="opacity: 0.7; mix-blend-mode: soft-light; fill-rule: evenodd; fill: rgb(255, 255, 255);"/>
  <path d="M 758.155 689.132 C 756.3 693.618 754.203 697.975 751.88 702.185 L 17.952 702.185 C 15.629 697.975 13.532 693.618 11.677 689.132 L 758.155 689.132 Z" style="opacity: 0.7; mix-blend-mode: soft-light; fill-rule: evenodd; fill: rgb(255, 255, 255);"/>
  <path d="M 766.017 662.087 C 765.206 666.699 764.153 671.227 762.872 675.655 L 6.96 675.655 C 5.679 671.227 4.626 666.699 3.815 662.087 L 766.017 662.087 Z" style="opacity: 0.7; mix-blend-mode: soft-light; fill-rule: evenodd; fill: rgb(255, 255, 255);"/>
  <path d="M 768 609.27 L 768 623.112 L 1.832 623.112 L 1.832 609.27 L 768 609.27 Z" style="opacity: 0.7; mix-blend-mode: soft-light; fill-rule: evenodd; fill: rgb(255, 255, 255);"/>
  <path d="M 768 582.316 L 768 595.793 L 1.832 595.793 L 1.832 582.316 L 768 582.316 Z" style="opacity: 0.7; mix-blend-mode: soft-light; fill-rule: evenodd; fill: rgb(255, 255, 255);"/>
  <path d="M 768 556.453 L 768 568.838 L 1.832 568.838 L 1.832 556.453 L 768 556.453 Z" style="opacity: 0.7; mix-blend-mode: soft-light; fill-rule: evenodd; fill: rgb(255, 255, 255);"/>
  <path d="M 768 529.499 L 768 542.976 L 1.832 542.976 L 1.832 529.499 L 768 529.499 Z" style="opacity: 0.7; mix-blend-mode: soft-light; fill-rule: evenodd; fill: rgb(255, 255, 255);"/>
  <path d="M 747.934 355.777 L 756.681 342.725 L 768 342.725 L 768 355.777 L 747.934 355.777 Z" style="opacity: 0.7; mix-blend-mode: soft-light; fill-rule: evenodd; fill: rgb(255, 255, 255);"/>
  <path d="M 730.112 382.368 L 738.901 369.255 L 768 369.255 L 768 382.368 L 730.112 382.368 Z" style="opacity: 0.7; mix-blend-mode: soft-light; fill-rule: evenodd; fill: rgb(255, 255, 255);"/>
  <path d="M 712.535 408.594 L 721.08 395.845 L 768 395.845 L 768 408.594 L 712.535 408.594 Z" style="opacity: 0.7; mix-blend-mode: soft-light; fill-rule: evenodd; fill: rgb(255, 255, 255);"/>
  <path d="M 694.47 435.549 L 703.502 422.072 L 768 422.072 L 768 435.549 L 694.47 435.549 Z" style="opacity: 0.7; mix-blend-mode: soft-light; fill-rule: evenodd; fill: rgb(255, 255, 255);"/>
  <path d="M 681.415 408.594 L 687.746 422.072 L 703.502 422.072 L 712.535 408.594 L 681.415 408.594 Z" style="opacity: 0.7; mix-blend-mode: soft-light; fill-rule: evenodd; fill: rgb(255, 255, 255);"/>
  <path d="M 620.008 329.248 L 629.778 315.681 L 644.536 315.681 L 649.044 329.248 L 620.008 329.248 Z" style="opacity: 0.7; mix-blend-mode: soft-light; fill-rule: evenodd; fill: rgb(255, 255, 255);"/>
  <path d="M 590.519 329.248 L 596.335 342.725 L 610.304 342.725 L 620.008 329.248 L 590.519 329.248 Z" style="opacity: 0.7; mix-blend-mode: soft-light; fill-rule: evenodd; fill: rgb(255, 255, 255);"/>
  <path d="M 515.139 276.705 L 520.907 262.864 L 561.874 262.864 L 567.847 276.705 L 515.139 276.705 Z" style="opacity: 0.7; mix-blend-mode: soft-light; fill-rule: evenodd; fill: rgb(255, 255, 255);"/>
  <path d="M 504.514 302.203 L 509.523 290.183 L 573.663 290.183 L 578.849 302.203 L 504.514 302.203 Z" style="opacity: 0.7; mix-blend-mode: soft-light; fill-rule: evenodd; fill: rgb(255, 255, 255);"/>
  <path d="M 493.245 329.248 L 498.898 315.681 L 584.665 315.681 L 590.519 329.248 L 493.245 329.248 Z" style="opacity: 0.7; mix-blend-mode: soft-light; fill-rule: evenodd; fill: rgb(255, 255, 255);"/>
  <path d="M 471.11 382.368 L 476.574 369.255 L 662.938 369.255 L 669.097 382.368 L 471.11 382.368 Z" style="opacity: 0.7; mix-blend-mode: soft-light; fill-rule: evenodd; fill: rgb(255, 255, 255);"/>
  <path d="M 421.664 435.549 L 430.266 422.072 L 687.746 422.072 L 694.075 435.549 L 421.664 435.549 Z" style="opacity: 0.7; mix-blend-mode: soft-light; fill-rule: evenodd; fill: rgb(255, 255, 255);"/>
  <path d="M 404.013 463.204 L 413.062 449.027 L 768 449.027 L 768 463.204 L 404.013 463.204 Z" style="opacity: 0.7; mix-blend-mode: soft-light; fill-rule: evenodd; fill: rgb(255, 255, 255);"/>
  <path d="M 387.507 489.066 L 395.411 476.682 L 768 476.682 L 768 489.066 L 387.507 489.066 Z" style="opacity: 0.7; mix-blend-mode: soft-light; fill-rule: evenodd; fill: rgb(255, 255, 255);"/>
  <path d="M 360.715 489.066 L 367.133 502.544 L 378.905 502.544 L 387.507 489.066 L 360.715 489.066 Z" style="opacity: 0.7; mix-blend-mode: soft-light; fill-rule: evenodd; fill: rgb(255, 255, 255);"/>
  <path d="M 38.899 37.708 C 16.061 61.062 1.832 93.188 1.832 128.745 L 1.832 308.227 C 1.832 308.227 102.79 397.225 382.803 386.596 C 475.365 383.082 550.326 378.703 605.634 368.761 C 731.314 346.167 768 311.5 768 311.5 L 768 128.737 C 768 93.177 753.771 61.062 730.933 37.708 C 707.975 14.475 676.396 0 641.443 0 L 453.053 0 L 128.381 0 C 93.425 0 61.857 14.475 38.899 37.708 Z" style="opacity: 1; fill: url(&quot;#gradient-3&quot;);"/>
  <path d="M 254.143 355.777 L 261.677 342.725 L 291.026 342.725 L 297.242 355.777 L 254.143 355.777 Z" style="opacity: 0.7; mix-blend-mode: soft-light; fill-rule: evenodd; fill: rgb(255, 255, 255);"/>
  <path d="M 238.791 382.368 L 246.362 369.255 L 303.66 369.255 L 309.904 382.368 L 238.791 382.368 Z" style="opacity: 0.7; mix-blend-mode: soft-light; fill-rule: evenodd; fill: rgb(255, 255, 255);"/>
  <path d="M 223.651 408.594 L 231.011 395.845 L 316.322 395.845 L 322.393 408.594 L 223.651 408.594 Z" style="opacity: 0.7; mix-blend-mode: soft-light; fill-rule: evenodd; fill: rgb(255, 255, 255);"/>
  <path d="M 208.09 435.549 L 215.87 422.072 L 328.812 422.072 L 335.229 435.549 L 208.09 435.549 Z" style="opacity: 0.7; mix-blend-mode: soft-light; fill-rule: evenodd; fill: rgb(255, 255, 255);"/>
  <path d="M 117.948 435.549 L 130.062 422.072 L 158.581 422.072 L 179.68 435.549 L 117.948 435.549 Z" style="opacity: 0.7; mix-blend-mode: soft-light; fill-rule: evenodd; fill: rgb(255, 255, 255);"/>
  <path d="M 93.089 463.204 L 105.833 449.027 L 341.648 449.027 L 348.399 463.204 L 93.089 463.204 Z" style="opacity: 0.7; mix-blend-mode: soft-light; fill-rule: evenodd; fill: rgb(255, 255, 255);"/>
  <path d="M 69.843 489.066 L 80.974 476.682 L 354.817 476.682 L 360.715 489.066 L 69.843 489.066 Z" style="opacity: 0.7; mix-blend-mode: soft-light; fill-rule: evenodd; fill: rgb(255, 255, 255);"/>
  <path d="M 26.347 476.682 L 62.666 489.066 L 1.832 489.066 L 1.832 476.682 L 26.347 476.682 Z" style="opacity: 0.7; mix-blend-mode: soft-light; fill-rule: evenodd; fill: rgb(255, 255, 255);"/>
  <path d="M 768 639.262 C 768 642.406 767.889 645.523 767.671 648.61 L 2.161 648.61 C 1.943 645.523 1.832 642.406 1.832 639.262 L 1.832 636.591 L 768 636.591 L 768 639.262 Z" style="opacity: 0.7; mix-blend-mode: soft-light; fill-rule: evenodd; fill: rgb(255, 255, 255);"/>
  <path d="M 694.238 435.895 L 694.47 435.549 L 694.075 435.549 L 694.238 435.895 Z" style="opacity: 0.7; mix-blend-mode: soft-light; fill-rule: evenodd; fill: rgb(255, 255, 255);"/>
  <path d="M 639.877 301.656 L 640.059 302.203 L 639.483 302.203 L 639.877 301.656 Z" style="opacity: 0.7; mix-blend-mode: soft-light; fill-rule: evenodd; fill: rgb(255, 255, 255);"/>
  <path d="M 601.569 354.855 L 610.304 342.725 L 653.521 342.725 L 657.857 355.777 L 482.19 355.777 L 487.629 342.725 L 596.335 342.725 L 601.569 354.855 Z" style="opacity: 0.7; mix-blend-mode: soft-light; fill-rule: evenodd; fill: rgb(255, 255, 255);"/>
  <path d="M 541.033 214.565 L 556.058 249.386 L 526.523 249.386 L 541.033 214.565 Z" style="opacity: 0.7; mix-blend-mode: soft-light; fill-rule: evenodd; fill: rgb(255, 255, 255);"/>
  <path d="M 444.103 400.392 L 463.15 401.47 L 465.494 395.845 L 675.427 395.845 L 681.415 408.594 L 438.868 408.594 L 444.103 400.392 Z" style="opacity: 0.7; mix-blend-mode: soft-light; fill-rule: evenodd; fill: rgb(255, 255, 255);"/>
  <path d="M 372.163 513.107 L 378.905 502.544 L 768 502.544 L 768 516.021 L 1.832 516.021 L 1.832 502.544 L 367.133 502.544 L 372.163 513.107 Z" style="opacity: 0.7; mix-blend-mode: soft-light; fill-rule: evenodd; fill: rgb(255, 255, 255);"/>
  <path d="M 200.436 448.807 L 208.09 435.549 L 179.68 435.549 L 200.436 448.807 Z" style="opacity: 0.7; mix-blend-mode: soft-light; fill-rule: evenodd; fill: rgb(255, 255, 255);"/>
  <path d="M 68.159 490.939 L 69.843 489.066 L 62.666 489.066 L 68.159 490.939 Z" style="opacity: 0.7; mix-blend-mode: soft-light; fill-rule: evenodd; fill: rgb(255, 255, 255);"/>
  <rect x="1.832" width="766.168" height="768" style="opacity: 1; fill: none; stroke-width: 3px;" rx="47.527" ry="47.527"/>
  <path d="M 5.171 452.767 L 38.856 466.427 C 39.679 466.714 40.467 467.086 41.21 467.543 L 69.666 483.016 L 137.501 391.623 C 139.58 388.823 142.773 387.065 146.25 386.807 C 149.731 386.553 153.147 387.82 155.615 390.285 L 197.552 432.159 L 274.395 299.595 C 276.573 295.727 280.708 293.378 285.144 293.489 C 289.577 293.598 293.593 296.147 295.579 300.115 L 321.575 352.057 C 322.019 352.948 322.355 353.891 322.565 354.866 L 348.14 471.826 L 377.984 497.789 L 436.989 386.263 C 440.059 380.458 447.227 378.202 453.069 381.198 L 457.278 383.356 L 489.02 321.061 L 532.946 208.216 C 534.672 203.779 538.86 200.783 543.618 200.58 C 548.374 200.377 552.802 203.005 554.9 207.279 L 583.758 266.053 C 583.985 266.508 584.179 266.979 584.344 267.459 L 606.311 331.717 L 637.262 292.536 C 640.186 288.836 645.011 287.189 649.585 288.335 C 654.162 289.478 657.645 293.197 658.487 297.84 L 675.56 392.179 L 697.167 415.669 L 762.358 301.811 C 763.697 299.473 765.704 297.756 768 296.762 L 768 340.256 L 709.85 441.821 C 707.949 445.142 704.578 447.355 700.775 447.783 C 696.973 448.211 693.195 446.797 690.606 443.983 L 655.539 405.863 C 654 404.192 652.967 402.114 652.562 399.877 L 639.605 328.286 L 611.496 363.873 C 608.772 367.321 604.384 369.003 600.054 368.261 C 595.724 367.519 592.143 364.471 590.724 360.316 L 561.882 275.945 L 545.4 242.384 L 511.168 330.328 C 511.022 330.702 510.859 331.067 510.676 331.422 L 473.201 404.969 C 471.753 407.811 469.236 409.959 466.204 410.939 C 463.168 411.923 459.872 411.654 457.033 410.2 L 452.661 407.96 L 392.128 522.381 C 390.413 525.618 387.316 527.896 383.716 528.565 C 380.116 529.237 376.407 528.224 373.643 525.821 L 329.39 487.325 C 327.443 485.632 326.093 483.354 325.545 480.835 L 299.44 361.456 L 283.219 329.041 L 211.704 454.704 C 209.862 457.973 205.077 461.237 201.882 461.701 C 198.514 462.188 193.425 461.955 190.77 459.303 L 148.49 417.085 L 82.389 503.144 C 78.68 508.139 64.772 507.473 59.474 504.219 L 29.769 486.68 L 0 476.374 L 0 452.17 C 1.695 451.991 3.454 452.173 5.171 452.767 Z" style="opacity: 1; stroke-width: 7px; fill-opacity: 0.54; filter: url(&quot;#filter-1&quot;);"/>
  <path d="M 5.171 452.767 L 38.856 466.427 C 39.679 466.714 40.467 467.086 41.21 467.543 L 69.666 483.016 L 137.501 391.623 C 139.58 388.823 142.773 387.065 146.25 386.807 C 149.731 386.553 153.147 387.82 155.615 390.285 L 197.552 432.159 L 274.395 299.595 C 276.573 295.727 280.708 293.378 285.144 293.489 C 289.577 293.598 293.593 296.147 295.579 300.115 L 321.575 352.057 C 322.019 352.948 322.355 353.891 322.565 354.866 L 348.14 471.826 L 377.984 497.789 L 436.989 386.263 C 440.059 380.458 447.227 378.202 453.069 381.198 L 457.278 383.356 L 489.02 321.061 L 532.946 208.216 C 534.672 203.779 538.86 200.783 543.618 200.58 C 548.374 200.377 552.802 203.005 554.9 207.279 L 583.758 266.053 C 583.985 266.508 584.179 266.979 584.344 267.459 L 606.311 331.717 L 637.262 292.536 C 640.186 288.836 645.011 287.189 649.585 288.335 C 654.162 289.478 657.645 293.197 658.487 297.84 L 675.56 392.179 L 697.167 415.669 L 762.358 301.811 C 763.697 299.473 765.704 297.756 768 296.762 L 768 340.256 L 709.85 441.821 C 707.949 445.142 704.578 447.355 700.775 447.783 C 696.973 448.211 693.195 446.797 690.606 443.983 L 655.539 405.863 C 654 404.192 652.967 402.114 652.562 399.877 L 639.605 328.286 L 611.496 363.873 C 608.772 367.321 604.384 369.003 600.054 368.261 C 595.724 367.519 592.143 364.471 590.724 360.316 L 561.882 275.945 L 545.4 242.384 L 511.168 330.328 C 511.022 330.702 510.859 331.067 510.676 331.422 L 473.201 404.969 C 471.753 407.811 469.236 409.959 466.204 410.939 C 463.168 411.923 459.872 411.654 457.033 410.2 L 452.661 407.96 L 392.128 522.381 C 390.413 525.618 387.316 527.896 383.716 528.565 C 380.116 529.237 376.407 528.224 373.643 525.821 L 329.39 487.325 C 327.443 485.632 326.093 483.354 325.545 480.835 L 299.44 361.456 L 283.219 329.041 L 211.704 454.704 C 209.862 457.973 205.077 461.237 201.882 461.701 C 198.514 462.188 193.425 461.955 190.77 459.303 L 148.49 417.085 L 82.389 503.144 C 78.68 508.139 64.772 507.473 59.474 504.219 L 29.769 486.68 L 0 476.374 L 0 452.17 C 1.695 451.991 3.454 452.173 5.171 452.767 Z" style="opacity: 1; fill: rgb(255, 255, 255);"/>
  <g transform="matrix(1, 0, 0, 1, 58.95800018310547, 189.74899291992188)" style="mix-blend-mode: overlay; opacity: 1;">
    <rect x="481.931" y="-189.749" width="16.069" height="768" style="opacity: 0.37; filter: url(&quot;#filter-2&quot;);"/>
    <rect x="481.931" y="-189.749" width="16.069" height="768" style="fill: rgb(255, 255, 255); opacity: 0.5;"/>
    <rect x="152.314" y="-189.749" width="16.069" height="768" style="opacity: 0.4; filter: url(&quot;#filter-2&quot;);"/>
    <rect x="152.314" y="-189.749" width="16.069" height="768" style="fill: rgb(255, 255, 255); opacity: 0.5;"/>
  </g>
</svg>